# xmcd 
#
# Track frame offsets:
# 150
# 9899
# 20985
# 31897
# 43901
# 59069
# 71398
# 86002
# 96633
# 107973
# 117901
# 132476
# 144474
# 156202
# 167497
# 176474
# 184511
# 196137
# 207908
# 221936
# 234822
# 251009
# 266581
# 281701
# 297700
# 311049
# 326249
# 335143
#
# Disc length: 4680 seconds
#
# Revision: 0
# Processed by: cddbd v1.4PL0 Copyright (c) Steve Scherf et al.
# Submitted via: GrayWolf CD JukeBox 2 02.00.03
#
DISCID=ba12461c
DTITLE=Irish Rovers  - Stop Look and Listen
DYEAR=1900
DGENRE=
TTITLE0=Stop Look and Listen
TTITLE1=The Stolen Child
TTITLE2=Penny Whistle Peddler
TTITLE3=Brambleshire
TTITLE4=Lily The Pink
TTITLE5=Mrs. Crandall's
TTITLE6=Our Little Boy Blue
TTITLE7=Cranberry Lane
TTITLE8=Ally-Bally
TTITLE9=Pigs Can't Fly
TTITLE10=The Unicorn
TTITLE11=Bonnie Kellswater
TTITLE12=Orange And Green
TTITLE13=Hiring Fair
TTITLE14=Bridget Flynn
TTITLE15=Come In
TTITLE16=Goodbye Mrs. Durkin
TTITLE17=Pat Of Mullingar
TTITLE18=Wind That Shakes The Corn
TTITLE19=First Love In Life
TTITLE20=Black Velvet Band
TTITLE21=BANKS OF NEWFOUNDLAND
TTITLE22=BONNIE WOODGREEN
TTITLE23=BUNCLODY CUCKOO
TTITLE24=FAREWELL TO NOVA SCOTIA
TTITLE25=SAM HALL
TTITLE26=THE IRISH ROVER
TTITLE27=YEARS MAY COME AND YEARS MAY GO
EXTD=
EXTT0=
EXTT1=
EXTT2=
EXTT3=
EXTT4=
EXTT5=
EXTT6=
EXTT7=
EXTT8=
EXTT9=
EXTT10=
EXTT11=
EXTT12=
EXTT13=
EXTT14=
EXTT15=
EXTT16=
EXTT17=
EXTT18=
EXTT19=
EXTT20=
EXTT21=
EXTT22=
EXTT23=
EXTT24=
EXTT25=
EXTT26=
EXTT27=
PLAYORDER=
